<svg xmlns="http://www.w3.org/2000/svg" viewBox="0 0 64 64">
  <defs>
    <radialGradient id="halo" cx="50%" cy="48%" r="52%">
      <stop offset="0%" stop-color="#d4ad7a" stop-opacity="0.5"/>
      <stop offset="100%" stop-color="#00356b" stop-opacity="0"/>
    </radialGradient>
    <linearGradient id="bulb" x1="32" y1="8" x2="32" y2="38">
      <stop offset="0%" stop-color="#fffef5"/>
      <stop offset="45%" stop-color="#fde047"/>
      <stop offset="100%" stop-color="#eab308"/>
    </linearGradient>
  </defs>

  <circle cx="32" cy="32" r="30" fill="url(#halo)"/>

  <!-- Hair -->
  <path fill="#c49a6c" d="M14 48c-3-14 4-28 18-29s21 15 18 29c-2 3-8 4-18 0s-16 0-18 0z"/>
  <path fill="#c49a6c" d="M17 18 Q32 10 47 18 L47 22 Q32 14 17 22 Z"/>

  <!-- Bulb face -->
  <ellipse cx="32" cy="28" rx="17" ry="19" fill="url(#bulb)" stroke="#ca8a04" stroke-width="1.2"/>
  <path d="M27 18 L29 24 L32 17 L35 24 L37 18" fill="none" stroke="rgba(255,255,255,0.75)" stroke-width="1.4" stroke-linecap="round" stroke-linejoin="round"/>

  <!-- Earrings -->
  <circle cx="15" cy="30" r="3.2" fill="none" stroke="#d4af37" stroke-width="1.6"/>
  <circle cx="49" cy="30" r="3.2" fill="none" stroke="#d4af37" stroke-width="1.6"/>

  <!-- Eyes -->
  <ellipse cx="25" cy="28" rx="4.5" ry="3.5" fill="#fff"/>
  <ellipse cx="39" cy="28" rx="4.5" ry="3.5" fill="#fff"/>
  <ellipse cx="25" cy="28.5" rx="2.8" ry="3" fill="#4a3728"/>
  <ellipse cx="39" cy="28.5" rx="2.8" ry="3" fill="#4a3728"/>
  <circle cx="26.5" cy="27" r="1.2" fill="#fff"/>
  <circle cx="37.5" cy="27" r="1.2" fill="#fff"/>
  <path d="M19 24 Q25 21 31 24" fill="none" stroke="#5c4030" stroke-width="1.2" stroke-linecap="round"/>
  <path d="M33 24 Q39 21 45 24" fill="none" stroke="#5c4030" stroke-width="1.2" stroke-linecap="round"/>

  <!-- Smile -->
  <path d="M24 35 Q32 41 40 35" fill="none" stroke="#e879a9" stroke-width="2" stroke-linecap="round"/>
  <path d="M26 35.5 Q32 39.5 38 35.5" fill="none" stroke="#f472b6" stroke-width="1.2" stroke-linecap="round" opacity="0.7"/>

  <!-- Bangs -->
  <path fill="#c49a6c" d="M17 22 Q32 14 47 22 L47 26 Q32 18 17 26 Z"/>

  <!-- Collar & blazer -->
  <path fill="#f8fafc" d="M24 44 L40 44 L38 47 L26 47 Z"/>
  <path fill="#1e293b" d="M22 47 L42 47 Q44 50 42 54 L22 54 Q20 50 22 47 Z"/>
  <circle cx="27" cy="50" r="2" fill="#286dc0"/>
</svg>
